<?xml version="1.0" encoding="UTF-8" standalone="no"?>
<!DOCTYPE svg PUBLIC "-//W3C//DTD SVG 1.1//EN"
 "http://www.w3.org/Graphics/SVG/1.1/DTD/svg11.dtd">
<!-- Generated by graphviz version 2.47.0 (20210316.0004)
 -->
<!-- Title: dependencies Pages: 1 -->
<svg width="504pt" height="284pt"
 viewBox="0.00 0.00 504.00 284.00" xmlns="http://www.w3.org/2000/svg" xmlns:xlink="http://www.w3.org/1999/xlink">
<g id="graph0" class="graph" transform="scale(1 1) rotate(0) translate(4 280)">
<title>dependencies</title>
<polygon fill="white" stroke="transparent" points="-4,4 -4,-280 500,-280 500,4 -4,4"/>
<text text-anchor="start" x="227.01" y="-42.4" font-family="Times-12" font-weight="bold" font-size="14.00">Legend</text>
<polygon fill="#ffffb3" stroke="transparent" points="14,-10 14,-30 34,-30 34,-10 14,-10"/>
<text text-anchor="start" x="37.63" y="-15.4" font-family="Times-12" font-size="14.00"> &#160;Declarations</text>
<polygon fill="#8dd3c7" stroke="transparent" points="127,-10 127,-30 147,-30 147,-10 127,-10"/>
<text text-anchor="start" x="150.73" y="-15.4" font-family="Times-12" font-size="14.00"> &#160;Module</text>
<polygon fill="#80b1d3" stroke="transparent" points="213,-10 213,-30 233,-30 233,-10 213,-10"/>
<text text-anchor="start" x="236.78" y="-15.4" font-family="Times-12" font-size="14.00"> &#160;Bootstrap</text>
<polygon fill="#fdb462" stroke="transparent" points="310,-10 310,-30 330,-30 330,-10 310,-10"/>
<text text-anchor="start" x="333.67" y="-15.4" font-family="Times-12" font-size="14.00"> &#160;Providers</text>
<polygon fill="#fb8072" stroke="transparent" points="406,-10 406,-30 426,-30 426,-10 406,-10"/>
<text text-anchor="start" x="429.73" y="-15.4" font-family="Times-12" font-size="14.00"> &#160;Exports</text>
<g id="clust1" class="cluster">
<title>cluster_DbzModule</title>
<polygon fill="none" stroke="black" stroke-dasharray="1,5" points="13.5,-70 13.5,-268 482.5,-268 482.5,-70 13.5,-70"/>
</g>
<g id="clust2" class="cluster">
<title>cluster_DbzModule_declarations</title>
<polygon fill="none" stroke="black" points="21.5,-78 21.5,-130 474.5,-130 474.5,-78 21.5,-78"/>
</g>
<g id="clust7" class="cluster">
<title>cluster_DbzModule_exports</title>
<polygon fill="none" stroke="black" points="158.5,-208 158.5,-260 316.5,-260 316.5,-208 158.5,-208"/>
</g>
<!-- AddCharacterComponent -->
<g id="node1" class="node">
<title>AddCharacterComponent</title>
<polygon fill="#ffffb3" stroke="black" points="466.35,-122 306.65,-122 306.65,-86 466.35,-86 466.35,-122"/>
<text text-anchor="middle" x="386.5" y="-99.8" font-family="Times,serif" font-size="14.00">AddCharacterComponent</text>
</g>
<!-- DbzModule -->
<g id="node4" class="node">
<title>DbzModule</title>
<polygon fill="#8dd3c7" stroke="black" points="278.87,-187 275.87,-191 254.87,-191 251.87,-187 196.13,-187 196.13,-151 278.87,-151 278.87,-187"/>
<text text-anchor="middle" x="237.5" y="-164.8" font-family="Times,serif" font-size="14.00">DbzModule</text>
</g>
<!-- AddCharacterComponent&#45;&gt;DbzModule -->
<g id="edge1" class="edge">
<title>AddCharacterComponent&#45;&gt;DbzModule</title>
<path fill="none" stroke="black" d="M387.36,-122.11C387.36,-141.34 387.36,-169 387.36,-169 387.36,-169 289.24,-169 289.24,-169"/>
<polygon fill="black" stroke="black" points="289.24,-165.5 279.24,-169 289.24,-172.5 289.24,-165.5"/>
</g>
<!-- ListComponent -->
<g id="node2" class="node">
<title>ListComponent</title>
<polygon fill="#ffffb3" stroke="black" points="289.11,-122 185.89,-122 185.89,-86 289.11,-86 289.11,-122"/>
<text text-anchor="middle" x="237.5" y="-99.8" font-family="Times,serif" font-size="14.00">ListComponent</text>
</g>
<!-- ListComponent&#45;&gt;DbzModule -->
<g id="edge2" class="edge">
<title>ListComponent&#45;&gt;DbzModule</title>
<path fill="none" stroke="black" d="M237.5,-122.11C237.5,-122.11 237.5,-140.99 237.5,-140.99"/>
<polygon fill="black" stroke="black" points="234,-140.99 237.5,-150.99 241,-140.99 234,-140.99"/>
</g>
<!-- MainPageComponent -->
<g id="node3" class="node">
<title>MainPageComponent</title>
<polygon fill="#ffffb3" stroke="black" points="167.59,-122 29.41,-122 29.41,-86 167.59,-86 167.59,-122"/>
<text text-anchor="middle" x="98.5" y="-99.8" font-family="Times,serif" font-size="14.00">MainPageComponent</text>
</g>
<!-- MainPageComponent&#45;&gt;DbzModule -->
<g id="edge3" class="edge">
<title>MainPageComponent&#45;&gt;DbzModule</title>
<path fill="none" stroke="black" d="M98.08,-122.11C98.08,-141.34 98.08,-169 98.08,-169 98.08,-169 186.05,-169 186.05,-169"/>
<polygon fill="black" stroke="black" points="186.05,-172.5 196.05,-169 186.05,-165.5 186.05,-172.5"/>
</g>
<!-- MainPageComponent  -->
<g id="node5" class="node">
<title>MainPageComponent </title>
<polygon fill="#fb8072" stroke="black" points="308.09,-252 166.91,-252 166.91,-216 308.09,-216 308.09,-252"/>
<text text-anchor="middle" x="237.5" y="-229.8" font-family="Times,serif" font-size="14.00">MainPageComponent </text>
</g>
<!-- DbzModule&#45;&gt;MainPageComponent  -->
<g id="edge4" class="edge">
<title>DbzModule&#45;&gt;MainPageComponent </title>
<path fill="none" stroke="black" stroke-dasharray="5,2" d="M237.5,-187.11C237.5,-187.11 237.5,-205.99 237.5,-205.99"/>
<polygon fill="black" stroke="black" points="234,-205.99 237.5,-215.99 241,-205.99 234,-205.99"/>
</g>
</g>
</svg>
