<?xml version="1.0" encoding="UTF-8" standalone="no"?>
<!DOCTYPE svg PUBLIC "-//W3C//DTD SVG 1.1//EN"
 "http://www.w3.org/Graphics/SVG/1.1/DTD/svg11.dtd">
<!-- Generated by graphviz version 2.47.0 (20210316.0004)
 -->
<!-- Title: dependencies Pages: 1 -->
<svg width="1246pt" height="284pt"
 viewBox="0.00 0.00 1246.00 284.00" xmlns="http://www.w3.org/2000/svg" xmlns:xlink="http://www.w3.org/1999/xlink">
<g id="graph0" class="graph" transform="scale(1 1) rotate(0) translate(4 280)">
<title>dependencies</title>
<polygon fill="white" stroke="transparent" points="-4,4 -4,-280 1242,-280 1242,4 -4,4"/>
<text text-anchor="start" x="598.01" y="-42.4" font-family="Times-12" font-weight="bold" font-size="14.00">Legend</text>
<polygon fill="#ffffb3" stroke="transparent" points="385,-10 385,-30 405,-30 405,-10 385,-10"/>
<text text-anchor="start" x="408.63" y="-15.4" font-family="Times-12" font-size="14.00"> &#160;Declarations</text>
<polygon fill="#8dd3c7" stroke="transparent" points="498,-10 498,-30 518,-30 518,-10 498,-10"/>
<text text-anchor="start" x="521.73" y="-15.4" font-family="Times-12" font-size="14.00"> &#160;Module</text>
<polygon fill="#80b1d3" stroke="transparent" points="584,-10 584,-30 604,-30 604,-10 584,-10"/>
<text text-anchor="start" x="607.78" y="-15.4" font-family="Times-12" font-size="14.00"> &#160;Bootstrap</text>
<polygon fill="#fdb462" stroke="transparent" points="681,-10 681,-30 701,-30 701,-10 681,-10"/>
<text text-anchor="start" x="704.67" y="-15.4" font-family="Times-12" font-size="14.00"> &#160;Providers</text>
<polygon fill="#fb8072" stroke="transparent" points="777,-10 777,-30 797,-30 797,-10 777,-10"/>
<text text-anchor="start" x="800.73" y="-15.4" font-family="Times-12" font-size="14.00"> &#160;Exports</text>
<g id="clust1" class="cluster">
<title>cluster_PageModule</title>
<polygon fill="none" stroke="black" stroke-dasharray="1,5" points="8,-70 8,-268 1230,-268 1230,-70 8,-70"/>
</g>
<g id="clust12" class="cluster">
<title>cluster_PageModule_providers</title>
<polygon fill="none" stroke="black" points="1050,-78 1050,-130 1222,-130 1222,-78 1050,-78"/>
</g>
<g id="clust10" class="cluster">
<title>cluster_PageModule_exports</title>
<polygon fill="none" stroke="black" points="151,-208 151,-260 1076,-260 1076,-208 151,-208"/>
</g>
<g id="clust9" class="cluster">
<title>cluster_PageModule_imports</title>
<polygon fill="none" stroke="black" points="928,-78 928,-130 1042,-130 1042,-78 928,-78"/>
</g>
<g id="clust2" class="cluster">
<title>cluster_PageModule_declarations</title>
<polygon fill="none" stroke="black" points="16,-78 16,-130 920,-130 920,-78 16,-78"/>
</g>
<!-- CatalogoComponent -->
<g id="node1" class="node">
<title>CatalogoComponent</title>
<polygon fill="#ffffb3" stroke="black" points="911.88,-122 780.12,-122 780.12,-86 911.88,-86 911.88,-122"/>
<text text-anchor="middle" x="846" y="-99.8" font-family="Times,serif" font-size="14.00">CatalogoComponent</text>
</g>
<!-- PageModule -->
<g id="node7" class="node">
<title>PageModule</title>
<polygon fill="#8dd3c7" stroke="black" points="667.26,-187 664.26,-191 643.26,-191 640.26,-187 580.74,-187 580.74,-151 667.26,-151 667.26,-187"/>
<text text-anchor="middle" x="624" y="-164.8" font-family="Times,serif" font-size="14.00">PageModule</text>
</g>
<!-- CatalogoComponent&#45;&gt;PageModule -->
<g id="edge1" class="edge">
<title>CatalogoComponent&#45;&gt;PageModule</title>
<path fill="none" stroke="black" d="M789.05,-122.24C789.05,-137.57 789.05,-157 789.05,-157 789.05,-157 677.36,-157 677.36,-157"/>
<polygon fill="black" stroke="black" points="677.36,-153.5 667.36,-157 677.36,-160.5 677.36,-153.5"/>
</g>
<!-- CestaComponent -->
<g id="node2" class="node">
<title>CestaComponent</title>
<polygon fill="#ffffb3" stroke="black" points="762.43,-122 649.57,-122 649.57,-86 762.43,-86 762.43,-122"/>
<text text-anchor="middle" x="706" y="-99.8" font-family="Times,serif" font-size="14.00">CestaComponent</text>
</g>
<!-- CestaComponent&#45;&gt;PageModule -->
<g id="edge2" class="edge">
<title>CestaComponent&#45;&gt;PageModule</title>
<path fill="none" stroke="black" d="M658.58,-122.11C658.58,-122.11 658.58,-140.99 658.58,-140.99"/>
<polygon fill="black" stroke="black" points="655.08,-140.99 658.58,-150.99 662.08,-140.99 655.08,-140.99"/>
</g>
<!-- ContactoComponent -->
<g id="node3" class="node">
<title>ContactoComponent</title>
<polygon fill="#ffffb3" stroke="black" points="631.88,-122 500.12,-122 500.12,-86 631.88,-86 631.88,-122"/>
<text text-anchor="middle" x="566" y="-99.8" font-family="Times,serif" font-size="14.00">ContactoComponent</text>
</g>
<!-- ContactoComponent&#45;&gt;PageModule -->
<g id="edge3" class="edge">
<title>ContactoComponent&#45;&gt;PageModule</title>
<path fill="none" stroke="black" d="M606.28,-122.11C606.28,-122.11 606.28,-140.99 606.28,-140.99"/>
<polygon fill="black" stroke="black" points="602.78,-140.99 606.28,-150.99 609.78,-140.99 602.78,-140.99"/>
</g>
<!-- FormularioCestaComponent -->
<g id="node4" class="node">
<title>FormularioCestaComponent</title>
<polygon fill="#ffffb3" stroke="black" points="481.92,-122 306.08,-122 306.08,-86 481.92,-86 481.92,-122"/>
<text text-anchor="middle" x="394" y="-99.8" font-family="Times,serif" font-size="14.00">FormularioCestaComponent</text>
</g>
<!-- FormularioCestaComponent&#45;&gt;PageModule -->
<g id="edge4" class="edge">
<title>FormularioCestaComponent&#45;&gt;PageModule</title>
<path fill="none" stroke="black" d="M464.62,-122.24C464.62,-137.57 464.62,-157 464.62,-157 464.62,-157 570.45,-157 570.45,-157"/>
<polygon fill="black" stroke="black" points="570.45,-160.5 580.45,-157 570.45,-153.5 570.45,-160.5"/>
</g>
<!-- InicioComponent -->
<g id="node5" class="node">
<title>InicioComponent</title>
<polygon fill="#ffffb3" stroke="black" points="287.99,-122 174.01,-122 174.01,-86 287.99,-86 287.99,-122"/>
<text text-anchor="middle" x="231" y="-99.8" font-family="Times,serif" font-size="14.00">InicioComponent</text>
</g>
<!-- InicioComponent&#45;&gt;PageModule -->
<g id="edge5" class="edge">
<title>InicioComponent&#45;&gt;PageModule</title>
<path fill="none" stroke="black" d="M250,-122.02C250,-139.37 250,-163 250,-163 250,-163 570.73,-163 570.73,-163"/>
<polygon fill="black" stroke="black" points="570.73,-166.5 580.73,-163 570.73,-159.5 570.73,-166.5"/>
</g>
<!-- ProductoComponent -->
<g id="node6" class="node">
<title>ProductoComponent</title>
<polygon fill="#ffffb3" stroke="black" points="155.88,-122 24.12,-122 24.12,-86 155.88,-86 155.88,-122"/>
<text text-anchor="middle" x="90" y="-99.8" font-family="Times,serif" font-size="14.00">ProductoComponent</text>
</g>
<!-- ProductoComponent&#45;&gt;PageModule -->
<g id="edge6" class="edge">
<title>ProductoComponent&#45;&gt;PageModule</title>
<path fill="none" stroke="black" d="M90,-122.11C90,-141.34 90,-169 90,-169 90,-169 570.3,-169 570.3,-169"/>
<polygon fill="black" stroke="black" points="570.3,-172.5 580.3,-169 570.3,-165.5 570.3,-172.5"/>
</g>
<!-- CatalogoComponent  -->
<g id="node9" class="node">
<title>CatalogoComponent </title>
<polygon fill="#fb8072" stroke="black" points="1067.88,-252 932.12,-252 932.12,-216 1067.88,-216 1067.88,-252"/>
<text text-anchor="middle" x="1000" y="-229.8" font-family="Times,serif" font-size="14.00">CatalogoComponent </text>
</g>
<!-- PageModule&#45;&gt;CatalogoComponent  -->
<g id="edge8" class="edge">
<title>PageModule&#45;&gt;CatalogoComponent </title>
<path fill="none" stroke="black" stroke-dasharray="5,2" d="M667.29,-175C759.85,-175 968.6,-175 968.6,-175 968.6,-175 968.6,-205.98 968.6,-205.98"/>
<polygon fill="black" stroke="black" points="965.1,-205.98 968.6,-215.98 972.1,-205.98 965.1,-205.98"/>
</g>
<!-- CestaComponent  -->
<g id="node10" class="node">
<title>CestaComponent </title>
<polygon fill="#fb8072" stroke="black" points="913.93,-252 798.07,-252 798.07,-216 913.93,-216 913.93,-252"/>
<text text-anchor="middle" x="856" y="-229.8" font-family="Times,serif" font-size="14.00">CestaComponent </text>
</g>
<!-- PageModule&#45;&gt;CestaComponent  -->
<g id="edge9" class="edge">
<title>PageModule&#45;&gt;CestaComponent </title>
<path fill="none" stroke="black" stroke-dasharray="5,2" d="M667.45,-181C734.36,-181 854.99,-181 854.99,-181 854.99,-181 854.99,-205.76 854.99,-205.76"/>
<polygon fill="black" stroke="black" points="851.49,-205.76 854.99,-215.76 858.49,-205.76 851.49,-205.76"/>
</g>
<!-- ContactoComponent  -->
<g id="node11" class="node">
<title>ContactoComponent </title>
<polygon fill="#fb8072" stroke="black" points="779.88,-252 644.12,-252 644.12,-216 779.88,-216 779.88,-252"/>
<text text-anchor="middle" x="712" y="-229.8" font-family="Times,serif" font-size="14.00">ContactoComponent </text>
</g>
<!-- PageModule&#45;&gt;ContactoComponent  -->
<g id="edge10" class="edge">
<title>PageModule&#45;&gt;ContactoComponent </title>
<path fill="none" stroke="black" stroke-dasharray="5,2" d="M655.85,-187.11C655.85,-187.11 655.85,-205.99 655.85,-205.99"/>
<polygon fill="black" stroke="black" points="652.35,-205.99 655.85,-215.99 659.35,-205.99 652.35,-205.99"/>
</g>
<!-- FormularioCestaComponent  -->
<g id="node12" class="node">
<title>FormularioCestaComponent </title>
<polygon fill="#fb8072" stroke="black" points="626.42,-252 447.58,-252 447.58,-216 626.42,-216 626.42,-252"/>
<text text-anchor="middle" x="537" y="-229.8" font-family="Times,serif" font-size="14.00">FormularioCestaComponent </text>
</g>
<!-- PageModule&#45;&gt;FormularioCestaComponent  -->
<g id="edge11" class="edge">
<title>PageModule&#45;&gt;FormularioCestaComponent </title>
<path fill="none" stroke="black" stroke-dasharray="5,2" d="M603.54,-187.11C603.54,-187.11 603.54,-205.99 603.54,-205.99"/>
<polygon fill="black" stroke="black" points="600.04,-205.99 603.54,-215.99 607.04,-205.99 600.04,-205.99"/>
</g>
<!-- InicioComponent  -->
<g id="node13" class="node">
<title>InicioComponent </title>
<polygon fill="#fb8072" stroke="black" points="429.99,-252 312.01,-252 312.01,-216 429.99,-216 429.99,-252"/>
<text text-anchor="middle" x="371" y="-229.8" font-family="Times,serif" font-size="14.00">InicioComponent </text>
</g>
<!-- PageModule&#45;&gt;InicioComponent  -->
<g id="edge12" class="edge">
<title>PageModule&#45;&gt;InicioComponent </title>
<path fill="none" stroke="black" stroke-dasharray="5,2" d="M580.51,-181C508.17,-181 371,-181 371,-181 371,-181 371,-205.76 371,-205.76"/>
<polygon fill="black" stroke="black" points="367.5,-205.76 371,-215.76 374.5,-205.76 367.5,-205.76"/>
</g>
<!-- ProductoComponent  -->
<g id="node14" class="node">
<title>ProductoComponent </title>
<polygon fill="#fb8072" stroke="black" points="294.88,-252 159.12,-252 159.12,-216 294.88,-216 294.88,-252"/>
<text text-anchor="middle" x="227" y="-229.8" font-family="Times,serif" font-size="14.00">ProductoComponent </text>
</g>
<!-- PageModule&#45;&gt;ProductoComponent  -->
<g id="edge13" class="edge">
<title>PageModule&#45;&gt;ProductoComponent </title>
<path fill="none" stroke="black" stroke-dasharray="5,2" d="M580.69,-175C474.91,-175 212,-175 212,-175 212,-175 212,-205.98 212,-205.98"/>
<polygon fill="black" stroke="black" points="208.5,-205.98 212,-215.98 215.5,-205.98 208.5,-205.98"/>
</g>
<!-- SharedModule -->
<g id="node8" class="node">
<title>SharedModule</title>
<polygon fill="#8dd3c7" stroke="black" points="1034.42,-122 1031.42,-126 1010.42,-126 1007.42,-122 935.58,-122 935.58,-86 1034.42,-86 1034.42,-122"/>
<text text-anchor="middle" x="985" y="-99.8" font-family="Times,serif" font-size="14.00">SharedModule</text>
</g>
<!-- SharedModule&#45;&gt;PageModule -->
<g id="edge7" class="edge">
<title>SharedModule&#45;&gt;PageModule</title>
<path fill="none" stroke="black" d="M1001.4,-122.02C1001.4,-139.37 1001.4,-163 1001.4,-163 1001.4,-163 677.29,-163 677.29,-163"/>
<polygon fill="black" stroke="black" points="677.29,-159.5 667.29,-163 677.29,-166.5 677.29,-159.5"/>
</g>
<!-- ProductoServicio -->
<g id="node15" class="node">
<title>ProductoServicio</title>
<ellipse fill="#fdb462" stroke="black" cx="1136" cy="-104" rx="78.17" ry="18"/>
<text text-anchor="middle" x="1136" y="-99.8" font-family="Times,serif" font-size="14.00">ProductoServicio</text>
</g>
<!-- ProductoServicio&#45;&gt;PageModule -->
<g id="edge14" class="edge">
<title>ProductoServicio&#45;&gt;PageModule</title>
<path fill="none" stroke="black" d="M1062.8,-110.47C1062.8,-126.91 1062.8,-169 1062.8,-169 1062.8,-169 677.27,-169 677.27,-169"/>
<polygon fill="black" stroke="black" points="677.28,-165.5 667.27,-169 677.27,-172.5 677.28,-165.5"/>
</g>
</g>
</svg>
